<?xml version="1.0" encoding="UTF-8" standalone="no"?>
<!-- Created with Inkscape (http://www.inkscape.org/) -->

<svg
   xmlns:dc="http://purl.org/dc/elements/1.1/"
   xmlns:cc="http://creativecommons.org/ns#"
   xmlns:rdf="http://www.w3.org/1999/02/22-rdf-syntax-ns#"
   xmlns:svg="http://www.w3.org/2000/svg"
   xmlns="http://www.w3.org/2000/svg"
   xmlns:sodipodi="http://sodipodi.sourceforge.net/DTD/sodipodi-0.dtd"
   xmlns:inkscape="http://www.inkscape.org/namespaces/inkscape"
   width="744.09448819"
   height="1052.3622047"
   id="svg2"
   version="1.1"
   inkscape:version="0.48.3.1 r9886"
   sodipodi:docname="machinsk-notes.svg">
  <defs
     id="defs4" />
  <sodipodi:namedview
     id="base"
     pagecolor="#ffffff"
     bordercolor="#666666"
     borderopacity="1.0"
     inkscape:pageopacity="0.0"
     inkscape:pageshadow="2"
     inkscape:zoom="0.22627417"
     inkscape:cx="457.91605"
     inkscape:cy="37.832561"
     inkscape:document-units="px"
     inkscape:current-layer="layer1"
     showgrid="true"
     inkscape:window-width="1680"
     inkscape:window-height="956"
     inkscape:window-x="0"
     inkscape:window-y="31"
     inkscape:window-maximized="1">
    <inkscape:grid
       type="xygrid"
       id="grid2985" />
  </sodipodi:namedview>
  <metadata
     id="metadata7">
    <rdf:RDF>
      <cc:Work
         rdf:about="">
        <dc:format>image/svg+xml</dc:format>
        <dc:type
           rdf:resource="http://purl.org/dc/dcmitype/StillImage" />
        <dc:title></dc:title>
      </cc:Work>
    </rdf:RDF>
  </metadata>
  <g
     inkscape:label="Layer 1"
     inkscape:groupmode="layer"
     id="layer1">
    <rect
       style="fill:#0000ff;fill-rule:evenodd;stroke:#000000;stroke-width:1px;stroke-linecap:butt;stroke-linejoin:miter;stroke-opacity:1"
       id="rect2989"
       width="1040"
       height="1520"
       x="-2879.9995"
       y="-187.6377" />
    <rect
       style="fill:#f2f2f2"
       id="rect2991"
       width="960"
       height="1239.9999"
       x="-2839.9995"
       y="-147.6377" />
    <rect
       style="fill:#b3b3b3"
       id="rect2993"
       width="960"
       height="160"
       x="-2839.9995"
       y="1132.3623" />
    <text
       xml:space="preserve"
       style="font-size:136.31809998px;font-style:normal;font-weight:normal;line-height:125%;letter-spacing:0px;word-spacing:0px;fill:#000000;fill-opacity:1;stroke:none;font-family:Sans"
       x="-2688.8079"
       y="1280.5795"
       id="text2995"
       sodipodi:linespacing="125%"
       transform="scale(1.0174763,0.98282388)"><tspan
         sodipodi:role="line"
         id="tspan2997"
         x="-2688.8079"
         y="1280.5795">New Claim</tspan></text>
    <rect
       style="fill:#cccccc"
       id="rect3007"
       width="960"
       height="320"
       x="-2839.9995"
       y="-147.6377" />
    <text
       xml:space="preserve"
       style="font-size:84.41503143px;font-style:normal;font-weight:normal;line-height:125%;letter-spacing:0px;word-spacing:0px;fill:#000000;fill-opacity:1;stroke:none;font-family:Sans"
       x="-2853.0195"
       y="-54.979168"
       id="text3009"
       sodipodi:linespacing="125%"
       transform="scale(0.99229571,1.0077641)"><tspan
         sodipodi:role="line"
         id="tspan3011"
         x="-2853.0195"
         y="-54.979168">Calgary</tspan><tspan
         sodipodi:role="line"
         x="-2853.0195"
         y="50.539387"
         id="tspan3013">From: 2015-01-01</tspan><tspan
         sodipodi:role="line"
         x="-2853.0195"
         y="156.05843"
         id="tspan3015">Total: $201 CDN</tspan></text>
    <rect
       style="fill:#0000ff;fill-rule:evenodd;stroke:#000000;stroke-width:1px;stroke-linecap:butt;stroke-linejoin:miter;stroke-opacity:1"
       id="rect2989-2"
       width="1040"
       height="1520"
       x="-1399.9995"
       y="-187.6377" />
    <rect
       style="fill:#f2f2f2"
       id="rect2991-8"
       width="960"
       height="1439.9999"
       x="-1359.9995"
       y="-147.6377" />
    <text
       xml:space="preserve"
       style="font-size:69.59240723px;font-style:normal;font-weight:normal;line-height:125%;letter-spacing:0px;word-spacing:0px;fill:#000000;fill-opacity:1;stroke:none;font-family:Sans"
       x="4846.4839"
       y="-5132.3062"
       id="text4058-2"
       sodipodi:linespacing="125%"
       transform="scale(0.74299002,1.3459131)"><tspan
         sodipodi:role="line"
         id="tspan4060-4"
         x="4846.4839"
         y="-5132.3062" /></text>
    <rect
       style="fill:#808080;stroke:#000000;stroke-width:4.47213602;stroke-miterlimit:4;stroke-opacity:1;stroke-dasharray:none"
       id="rect4140"
       width="960"
       height="200"
       x="-1359.9995"
       y="1092.3623" />
    <text
       xml:space="preserve"
       style="font-size:72.64710236px;font-style:normal;font-weight:normal;line-height:125%;letter-spacing:0px;word-spacing:0px;fill:#000000;fill-opacity:1;stroke:none;font-family:Sans"
       x="-1074.4987"
       y="1128.3043"
       id="text4097-9"
       sodipodi:linespacing="125%"
       transform="scale(0.93066611,1.0744992)"><tspan
         sodipodi:role="line"
         id="tspan4099-5"
         x="-1074.4987"
         y="1128.3043">Apply</tspan></text>
    <rect
       style="fill:#0000ff;fill-rule:evenodd;stroke:#000000;stroke-width:1px;stroke-linecap:butt;stroke-linejoin:miter;stroke-opacity:1"
       id="rect2989-6-2"
       width="1040"
       height="1520"
       x="40.000488"
       y="-187.6377" />
    <rect
       style="fill:#f2f2f2"
       id="rect2991-9-0"
       width="960"
       height="1239.9999"
       x="80.000488"
       y="-147.6377" />
    <rect
       style="fill:#b3b3b3"
       id="rect2993-8-8"
       width="960"
       height="160"
       x="80.000488"
       y="1132.3618" />
    <text
       xml:space="preserve"
       style="font-size:125.39585114px;font-style:normal;font-weight:normal;line-height:125%;letter-spacing:0px;word-spacing:0px;fill:#000000;fill-opacity:1;stroke:none;font-family:Sans"
       x="196.98479"
       y="1177.9747"
       id="text2995-2-4"
       sodipodi:linespacing="125%"
       transform="scale(0.93595276,1.06843)"><tspan
         sodipodi:role="line"
         id="tspan2997-16-2"
         x="196.98479"
         y="1177.9747">Add Expense</tspan></text>
    <rect
       style="fill:#cccccc"
       id="rect3007-9-2"
       width="960"
       height="679.99976"
       x="80.000488"
       y="-147.6377" />
    <text
       xml:space="preserve"
       style="font-size:84.41503143px;font-style:normal;font-weight:normal;line-height:125%;letter-spacing:0px;word-spacing:0px;fill:#000000;fill-opacity:1;stroke:none;font-family:Sans"
       x="89.651901"
       y="-54.97868"
       id="text3009-5-1"
       sodipodi:linespacing="125%"
       transform="scale(0.99229571,1.0077641)"><tspan
         sodipodi:role="line"
         id="tspan3011-4-3"
         x="89.651901"
         y="-54.97868">Title: Calgary</tspan><tspan
         sodipodi:role="line"
         x="89.651901"
         y="50.539875"
         id="tspan3013-9-4">Date: 2015-01-01</tspan><tspan
         sodipodi:role="line"
         x="89.651901"
         y="156.05891"
         id="tspan3751">Category:</tspan><tspan
         sodipodi:role="line"
         x="89.651901"
         y="261.57748"
         id="tspan3753">Description:</tspan><tspan
         sodipodi:role="line"
         x="89.651901"
         y="367.09653"
         id="tspan3757">Tags:</tspan><tspan
         sodipodi:role="line"
         x="89.651901"
         y="472.61508"
         id="tspan3015-9-8">Total: $201 CDN</tspan></text>
    <flowRoot
       xml:space="preserve"
       id="flowRoot3743"
       style="fill:black;stroke:none;stroke-opacity:1;stroke-width:1px;stroke-linejoin:miter;stroke-linecap:butt;fill-opacity:1;font-family:Sans;font-style:normal;font-weight:normal;font-size:40px;line-height:125%;letter-spacing:0px;word-spacing:0px"><flowRegion
         id="flowRegion3745"><rect
           id="rect3747"
           width="266.68027"
           height="40.406101"
           x="5834.6411"
           y="-6467.2134" /></flowRegion><flowPara
         id="flowPara3749"></flowPara></flowRoot>    <rect
       style="fill:#0000ff;fill-rule:evenodd;stroke:#000000;stroke-width:1px;stroke-linecap:butt;stroke-linejoin:miter;stroke-opacity:1"
       id="rect2989-2-0"
       width="1040"
       height="1520"
       x="1280.0005"
       y="-187.6377" />
    <rect
       style="fill:#f2f2f2"
       id="rect2991-8-1"
       width="960"
       height="1439.9999"
       x="1320.0005"
       y="-147.6377" />
    <text
       xml:space="preserve"
       style="font-size:69.18688202px;font-style:normal;font-weight:normal;line-height:125%;letter-spacing:0px;word-spacing:0px;fill:#000000;fill-opacity:1;stroke:none;font-family:Sans"
       x="1836.4016"
       y="68.401108"
       id="text4058-8"
       sodipodi:linespacing="125%"
       transform="scale(0.74057924,1.3502944)"><tspan
         sodipodi:role="line"
         id="tspan4060-97"
         x="1836.4016"
         y="68.401108">Start Date</tspan></text>
    <text
       xml:space="preserve"
       style="font-size:72.64710236px;font-style:normal;font-weight:normal;line-height:125%;letter-spacing:0px;word-spacing:0px;fill:#000000;fill-opacity:1;stroke:none;font-family:Sans"
       x="1461.3192"
       y="-25.721611"
       id="text4097-51"
       sodipodi:linespacing="125%"
       transform="scale(0.93066611,1.0744992)"><tspan
         sodipodi:role="line"
         id="tspan4099-78"
         x="1461.3192"
         y="-25.721611">Name:</tspan></text>
    <rect
       style="fill:#808080;stroke:#000000;stroke-width:4.47213602;stroke-miterlimit:4;stroke-opacity:1;stroke-dasharray:none"
       id="rect4140-3"
       width="960"
       height="200"
       x="1320.0005"
       y="1092.3623" />
    <text
       xml:space="preserve"
       style="font-size:72.64710236px;font-style:normal;font-weight:normal;line-height:125%;letter-spacing:0px;word-spacing:0px;fill:#000000;fill-opacity:1;stroke:none;font-family:Sans"
       x="1805.1591"
       y="1128.3043"
       id="text4097-9-19"
       sodipodi:linespacing="125%"
       transform="scale(0.93066611,1.0744992)"><tspan
         sodipodi:role="line"
         id="tspan4099-5-0"
         x="1805.1591"
         y="1128.3043">Apply</tspan></text>
    <text
       xml:space="preserve"
       style="font-size:64.78440857px;font-style:normal;font-weight:normal;line-height:125%;letter-spacing:0px;word-spacing:0px;fill:#000000;fill-opacity:1;stroke:none;font-family:Sans"
       x="2196.6653"
       y="72.319664"
       id="text4162-2-2"
       sodipodi:linespacing="125%"
       transform="scale(0.78300546,1.2771303)"><tspan
         sodipodi:role="line"
         id="tspan4164-6-519"
         x="2196.6653"
         y="72.319664">2015-01-01</tspan></text>
    <text
       xml:space="preserve"
       style="font-size:76.21114349px;font-style:normal;font-weight:normal;line-height:125%;letter-spacing:0px;word-spacing:0px;fill:#000000;fill-opacity:1;stroke:none;font-family:Sans"
       x="1404.4442"
       y="189.52341"
       id="text3842"
       sodipodi:linespacing="125%"
       transform="scale(0.96828818,1.0327504)"><tspan
         sodipodi:role="line"
         id="tspan3844"
         x="1404.4442"
         y="189.52341">Category</tspan><tspan
         sodipodi:role="line"
         x="1404.4442"
         y="284.78757"
         id="tspan3846">Detail</tspan><tspan
         sodipodi:role="line"
         x="1404.4442"
         y="380.05124"
         id="tspan3848">Cost</tspan><tspan
         sodipodi:role="line"
         x="1404.4442"
         y="475.3154"
         id="tspan3850">Currency</tspan><tspan
         sodipodi:role="line"
         x="1404.4442"
         y="570.5791"
         id="tspan3852" /></text>
    <path
       style="fill:#000000;fill-opacity:1;fill-rule:nonzero;stroke:none"
       id="path3854"
       d="m 904.95889,818.2232 c 19.0317,-2.1225 38.1097,-1.966 57.2055,-1.2153 20.6986,0.9881 41.40941,1.6381 62.12811,1.9827 13.189,0.1631 26.3793,0.1147 39.569,0.1283 15.3884,0.051 30.7768,0.1002 46.1653,0.117 19.7868,0 39.5736,0.074 59.3605,0.079 17.0427,0.01 34.0851,-0.1408 51.1277,-0.1799 10.8785,0.742 21.4892,-1.5851 32.2363,-2.7943 10.6711,-1.0897 21.4124,-1.1534 32.1281,-1.2899 9.2428,-0.096 18.4861,-0.092 27.7293,-0.09 9.8475,0.026 19.695,0.052 29.5426,0.084 12.1179,-0.01 24.2358,0.04 36.3538,0.031 11.3728,0.022 22.7456,-0.036 34.1184,-0.069 7.134,-0.021 14.268,-0.027 21.402,-0.032 0,0 -48.5292,35.2586 -48.5292,35.2586 l 0,0 c -7.105,0 -14.21,-0.011 -21.3149,-0.032 -11.3094,-0.034 -22.6188,-0.092 -33.9283,-0.069 -12.1447,-0.01 -24.2894,0.037 -36.4342,0.026 -9.9092,0.026 -19.8185,0.045 -29.7278,0.045 -9.1759,-0.017 -18.3523,-0.049 -27.5279,0.061 -10.6166,0.1798 -21.249,0.4765 -31.7949,1.8163 -10.7897,1.3614 -21.5351,2.7962 -32.4526,2.0733 -16.8776,-0.039 -33.7548,-0.1891 -50.6326,-0.1796 -19.8639,0.01 -39.7278,0.084 -59.5918,0.091 -15.5129,0.026 -31.0257,0.093 -46.5384,0.1451 -13.0929,-0.011 -26.18501,-0.1438 -39.27381,-0.4877 -20.6077,-0.5114 -41.1981,-1.4607 -61.7939,-2.312 -19.2608,-0.5059 -38.5385,-0.1685 -57.6364,2.6891 0,0 48.1101,-35.8765 48.1101,-35.8765 z"
       inkscape:connector-curvature="0" />
    <path
       style="fill:#000000;fill-opacity:1;fill-rule:nonzero;stroke:none"
       id="path3856"
       d="m 1355.6267,765.3042 c 9.5214,3.2495 18.9067,6.889 28.4335,10.1222 7.7604,2.6338 15.6326,4.9334 23.3748,7.6202 33.2892,11.5524 66.0204,24.7741 99.0671,36.997 47.7758,16.9787 96.089,32.4704 145.4838,44.0304 1.9943,0.4668 44.3396,9.5827 49.3688,10.6662 10.5681,3.6622 23.1302,4.0045 32.762,10.3705 0.8687,0.5742 7.1094,6.1354 4.026,8.2842 -17.3542,12.0936 -36.4323,21.5032 -54.6485,32.2548 -16.6722,2.5175 -33.2243,5.7159 -49.8453,8.5286 -19.2704,3.1442 -38.5328,6.0413 -58.0033,7.6019 -17.6344,0.8135 -35.1579,3.3486 -52.4296,6.9282 -17.0276,2.3547 -33.3576,7.3632 -49.6824,12.4835 -2.3983,0.8281 -4.8245,1.5795 -7.195,2.4844 -8.6629,3.307 -4.7755,2.4766 -13.5808,5.3104 -7.0467,2.2679 -14.3706,3.5198 -21.5664,5.2094 -14.6036,2.9634 -29.4532,4.254 -44.3112,5.0194 -7.2932,0.2557 -3.7248,0.1556 -10.705,0.3066 0,0 48.3224,-35.2883 48.3224,-35.2883 l 0,0 c 6.8313,-0.1852 3.3415,-0.067 10.4693,-0.3618 14.6191,-0.8609 29.2294,-2.3284 43.5068,-5.7279 14.4001,-3.3999 28.192,-8.2371 42.0674,-13.3398 16.3584,-5.1391 33.0185,-8.9915 49.9352,-11.8411 17.456,-3.1842 35.0439,-5.5502 52.7838,-6.4016 19.3217,-1.7585 38.463,-4.742 57.5938,-7.9445 16.6649,-3.0093 33.6156,-5.2672 49.8745,-10.0146 -15.8554,9.8416 -32.2308,18.891 -47.5662,29.5247 -0.8819,0.6116 1.8226,1.7375 2.8628,1.4732 0.7988,-0.2029 -1.0443,-1.3134 -1.7377,-1.759 -8.9641,-5.7608 -20.2129,-6.9823 -30.0034,-10.5104 -26.7862,-6.6335 -53.6799,-12.8431 -80.2308,-20.3938 -26.6719,-7.5852 -47.6549,-14.4188 -74.0961,-23.2112 -12.9413,-4.3033 -25.8313,-8.7594 -38.747,-13.1391 -51.3118,-18.4909 -102.4689,-37.4237 -155.1136,-51.872 0,0 49.5303,-33.4107 49.5303,-33.4107 z"
       inkscape:connector-curvature="0" />
    <path
       style="fill:#000000;fill-opacity:1;fill-rule:nonzero;stroke:none"
       id="path3858"
       d="m 1767.1041,1405.9629 c -14.8185,27.6644 -32.8077,53.3309 -51.2125,78.682 -32.2601,42.6507 -62.1923,87.1058 -95.4288,129.022 -7.0574,8.9004 -14.4868,17.4994 -21.7302,26.2491 -35.9471,40.5621 -73.4092,81.9204 -120.1846,110.385 -24.7945,15.0883 -50.2496,29.0633 -75.3743,43.595 -35.9815,19.433 -75.059,32.9436 -114.8918,42.0042 -24.1143,5.4851 -32.8229,6.1653 -57.2051,9.5493 -36.3028,2.8362 -72.9849,3.2191 -109.0646,-2.4044 -19.0633,-2.9713 -32.0063,-6.6647 -50.7018,-11.3455 -45.186,-12.1746 -87.62861,-32.4156 -126.87521,-57.7538 -8.1118,-5.2371 -15.9153,-10.9371 -23.8729,-16.4056 -33.0947,-23.0527 -65.9289,-46.5975 -94.6323,-75.0361 -10.9163,-10.6707 -18.0503,-23.9643 -24.6943,-37.4867 -3.6453,-7.567 -7.6911,-14.7163 -9.8184,-22.894 -1.5963,-8.8862 -1.6593,-17.9512 -1.7635,-26.9516 -0.2886,-5.795 0.098,-11.5099 0.936,-17.238 0,0 53.8741,-26.3469 53.8741,-26.3469 l 0,0 c -1.0098,5.4386 -1.8938,10.763 -1.4204,16.3316 0.028,8.5678 -0.018,17.185 1.2218,25.6824 1.7269,7.8637 5.6927,14.6105 8.9622,21.9025 6.196,13.0035 12.5782,25.9086 22.7786,36.3734 27.5151,28.7654 59.3376,52.6817 91.9316,75.4116 7.8921,5.3822 15.6313,10.9959 23.6764,16.1467 39.02911,24.9882 81.42981,44.3362 126.30961,56.0853 19.0763,4.6019 30.847,7.9025 50.2604,10.7609 35.7346,5.2617 72.0254,4.7137 107.9095,1.4742 9.4255,-1.3884 18.8933,-2.5147 28.2764,-4.1651 49.5399,-8.714 97.9449,-24.5853 142.1269,-48.7477 -6.6238,3.95 -25.5536,17.0644 -19.8714,11.8499 7.7666,-7.1273 17.7364,-11.4229 26.2216,-17.6775 35.479,-26.1521 65.9011,-58.4429 94.8837,-91.43 7.2803,-8.6767 14.7639,-17.1867 21.8408,-26.03 33.1556,-41.4312 62.5427,-85.7533 94.1765,-128.3193 17.6057,-24.6588 34.8643,-49.5589 48.7369,-76.5614 0,0 54.6191,-24.7115 54.6191,-24.7115 z"
       inkscape:connector-curvature="0" />
    <path
       style="fill:#000000;fill-opacity:1;fill-rule:nonzero;stroke:none"
       id="path3860"
       d="m 700.48629,1642.7327 c -1.8017,-19.1103 -2.3311,-38.2585 -1.7231,-57.4337 1.3983,-21.0569 8.0514,-40.758 16.5316,-59.8767 6.0333,-13.7478 13.0742,-26.9302 21.5406,-39.3238 14.6279,-20.154 26.5026,-22.0805 59.5227,-36.0139 0.8791,-0.371 11.7547,14.9563 12.2569,15.6119 11.1206,15.0601 23.1366,29.0766 36.9803,41.6728 11.3712,10.3836 23.2516,20.1258 35.7879,29.0605 16.6674,11.3355 32.8306,23.4155 48.8475,35.6506 9.2237,6.804 17.3882,15.1223 27.2327,21.0165 0,0 -50.2446,32.2869 -50.2446,32.2869 l 0,0 c -9.5559,-6.5373 -17.9025,-14.6416 -27.0522,-21.7328 -15.8664,-12.358 -32.0223,-24.3778 -48.8609,-35.3869 -12.7026,-9.1067 -24.8039,-18.9205 -36.1002,-29.7419 -13.8459,-12.9898 -25.9352,-27.3643 -37.6036,-42.3283 -1.6539,-1.9718 -3.2979,-3.9518 -4.9616,-5.9153 -1.1,-1.2982 -2.077,-2.7176 -3.3294,-3.8694 -0.3141,-0.2889 -1.6018,-0.1085 -1.2371,-0.3303 95.6958,-58.1901 57.3498,-38.3654 43.5756,-23.8508 -8.596,12.2712 -16.7898,24.6829 -22.5551,38.623 -8.6785,18.4869 -15.8688,37.2927 -17.6592,57.8556 -0.7967,18.7453 -0.6164,37.5149 2.1813,56.1173 0,0 -53.1301,27.9087 -53.1301,27.9087 z"
       inkscape:connector-curvature="0" />
    <path
       style="fill:#000000;fill-opacity:1;fill-rule:nonzero;stroke:none"
       id="path3862"
       d="m -1961.3838,778.708 c 80.3623,-6.6865 161.0233,-8.1679 241.6105,-9.8663 23.0549,-0.3762 46.1088,-0.8221 69.1648,-1.1287 63.2358,-0.8409 83.0895,-0.2416 146.4054,-2.8659 69.2556,-2.8704 138.4486,-8.172 207.617,-12.589 74.311,-3.915 148.5365,-8.1047 222.4424,-16.9262 0,0 -45.2218,33.5959 -45.2218,33.5959 l 0,0 c -72.5307,6.7935 -145.2603,9.7743 -218.0068,13.3461 -68.8706,4.0356 -137.7597,8.9477 -206.6965,11.711 -58.5005,2.3449 -88.4468,2.1278 -146.9457,3.2021 -23.2054,0.4261 -46.4078,1.0019 -69.6117,1.5028 -57.8864,1.8634 -115.7463,3.6088 -173.5141,7.9551 -42.8463,3.2236 -25.7312,2.4675 -61.4229,6.0009 -4.6848,0.4638 -9.3856,0.749 -14.0783,1.1236 0,0 48.2577,-35.0614 48.2577,-35.0614 z"
       inkscape:connector-curvature="0" />
    <path
       style="fill:#000000;fill-opacity:1;fill-rule:nonzero;stroke:none"
       id="path3864"
       d="m -1142.645,652.3967 c 21.2451,9.9785 42.819,19.3446 64.726,27.7823 28.763,10.1437 57.2741,20.8208 85.09809,33.3252 13.225,5.8244 20.374,16.1348 23.7425,29.7473 3.6388,17.2836 -3.694,32.7575 -11.5265,47.6744 -13.89,19.9513 -27.89469,39.8344 -41.86469,59.7379 -7.8276,10.5242 -15.3328,21.2729 -22.2519,32.4155 0,0 -55.0506,24.0075 -55.0506,24.0075 l 0,0 c 8.0352,-10.7383 14.3844,-22.732 23.1803,-32.9467 14.1751,-19.5535 27.5821,-39.6533 42.0419,-59.0046 7.4261,-13.4399 15.7716,-27.6337 12.9276,-43.5686 -2.8023,-12.7714 -8.483,-19.6887 -20.4588,-25.4539 -27.238,-13.14 -55.4606,-23.7739 -84.0875,-33.4969 -22.4313,-8.4753 -44.5353,-17.7843 -66.5573,-27.2679 0,0 50.0809,-32.9515 50.0809,-32.9515 z"
       inkscape:connector-curvature="0" />
    <rect
       style="fill:#ffff00;fill-rule:evenodd;stroke:#000000;stroke-width:1px;stroke-linecap:butt;stroke-linejoin:miter;stroke-opacity:1"
       id="rect3936"
       width="960"
       height="360"
       x="80.000488"
       y="732.3623" />
    <path
       style="fill:#000000;fill-opacity:1;fill-rule:nonzero;stroke:none"
       id="path3866"
       d="m -668.0259,1088.2556 c 59.732,9.9642 120.8139,9.952 181.2127,11.5681 122.7366,2.449 245.5083,2.5253 368.2649,2.428 79.528702,-0.1041 159.056002,-0.6666 238.576,-1.8453 19.78,-0.3155 10.5838,-0.1668 27.5885,-0.4443 0,0 -47.6158,34.5999 -47.6158,34.5999 l 0,0 c -16.278198,-0.2544 -7.472598,-0.118 -26.416698,-0.4078 -77.8566,-1.1058 -155.7197,-1.5944 -233.583702,-1.792 -123.226,-0.3317 -246.4543,-0.3254 -369.6762,-1.5312 -62.3943,-0.9044 -125.0546,-0.7862 -187.1319,-7.8706 0,0 48.7822,-34.7048 48.7822,-34.7048 z"
       inkscape:connector-curvature="0" />
    <path
       style="fill:#000000;fill-opacity:1;fill-rule:nonzero;stroke:none"
       id="path3868"
       d="m 35.356602,1029.0922 c 40.167,12.2412 80.087198,25.2902 120.161198,37.8571 25.0406,7.6936 50.6057,13.8334 75.3762,22.4152 8.3468,2.8917 22.8495,8.5715 30.9653,13.3162 3.2809,1.9181 6.1482,4.4693 9.2223,6.704 1.8945,2.4076 4.2413,4.5199 5.6835,7.2228 8.2775,15.5132 -5.6189,32.9356 -13.8532,44.956 -12.719,17.2848 -26.9311,33.5037 -41.8952,48.8796 -19.5317,18.2949 -46.0772,29.348 -68.4581,42.1685 0,0 46.7163,-37.4934 46.7163,-37.4934 l 0,0 c -88.2552,51.3614 -50.6968,31.4796 -33.2007,18.0772 15.46,-14.9995 30.0046,-31.0833 43.0051,-48.2598 5.4491,-7.4297 21.4753,-27.676 16.6966,-37.985 -1.0522,-2.2699 -2.9965,-4.0075 -4.4947,-6.0112 -2.7367,-2.0506 -5.2859,-4.3787 -8.2101,-6.1516 -30.7421,-18.6386 -70.4197,-24.4949 -103.9346,-36.2213 -40.886198,-12.4697 -81.660098,-25.5774 -123.194898,-35.7277 0,0 49.415,-33.7466 49.415,-33.7466 z"
       inkscape:connector-curvature="0" />
    <rect
       style="fill:#999999;stroke:#000000;stroke-width:4;stroke-miterlimit:4;stroke-opacity:1;stroke-dasharray:none"
       id="rect4900-7"
       width="160"
       height="160"
       x="-1999.9995"
       y="-187.6377" />
    <path
       sodipodi:type="arc"
       style="fill:#999999;stroke:#000000;stroke-width:4;stroke-miterlimit:4;stroke-opacity:1;stroke-dasharray:none"
       id="path4902-25"
       sodipodi:cx="2820"
       sodipodi:cy="-367.63782"
       sodipodi:rx="20"
       sodipodi:ry="20"
       d="m 2840,-367.63782 a 20,20 0 1 1 -40,0 20,20 0 1 1 40,0 z"
       transform="translate(-4739.9995,200)" />
    <path
       transform="translate(-4739.9995,320)"
       sodipodi:type="arc"
       style="fill:#999999;stroke:#000000;stroke-width:4;stroke-miterlimit:4;stroke-opacity:1;stroke-dasharray:none"
       id="path4902-2-3"
       sodipodi:cx="2820"
       sodipodi:cy="-367.63782"
       sodipodi:rx="20"
       sodipodi:ry="20"
       d="m 2840,-367.63782 a 20,20 0 1 1 -40,0 20,20 0 1 1 40,0 z" />
    <path
       transform="translate(-4739.9995,260)"
       sodipodi:type="arc"
       style="fill:#999999;stroke:#000000;stroke-width:4;stroke-miterlimit:4;stroke-opacity:1;stroke-dasharray:none"
       id="path4902-6-4"
       sodipodi:cx="2820"
       sodipodi:cy="-367.63782"
       sodipodi:rx="20"
       sodipodi:ry="20"
       d="m 2840,-367.63782 a 20,20 0 1 1 -40,0 20,20 0 1 1 40,0 z" />
    <rect
       style="fill:#999999;stroke:#000000;stroke-width:4;stroke-miterlimit:4;stroke-opacity:1;stroke-dasharray:none"
       id="rect4900-8"
       width="160"
       height="160"
       x="-479.99951"
       y="-227.6377" />
    <path
       sodipodi:type="arc"
       style="fill:#999999;stroke:#000000;stroke-width:4;stroke-miterlimit:4;stroke-opacity:1;stroke-dasharray:none"
       id="path4902-4"
       sodipodi:cx="2820"
       sodipodi:cy="-367.63782"
       sodipodi:rx="20"
       sodipodi:ry="20"
       d="m 2840,-367.63782 a 20,20 0 1 1 -40,0 20,20 0 1 1 40,0 z"
       transform="translate(-3219.9995,160)" />
    <path
       transform="translate(-3219.9995,280)"
       sodipodi:type="arc"
       style="fill:#999999;stroke:#000000;stroke-width:4;stroke-miterlimit:4;stroke-opacity:1;stroke-dasharray:none"
       id="path4902-2-6"
       sodipodi:cx="2820"
       sodipodi:cy="-367.63782"
       sodipodi:rx="20"
       sodipodi:ry="20"
       d="m 2840,-367.63782 a 20,20 0 1 1 -40,0 20,20 0 1 1 40,0 z" />
    <path
       transform="translate(-3219.9995,220)"
       sodipodi:type="arc"
       style="fill:#999999;stroke:#000000;stroke-width:4;stroke-miterlimit:4;stroke-opacity:1;stroke-dasharray:none"
       id="path4902-6-9"
       sodipodi:cx="2820"
       sodipodi:cy="-367.63782"
       sodipodi:rx="20"
       sodipodi:ry="20"
       d="m 2840,-367.63782 a 20,20 0 1 1 -40,0 20,20 0 1 1 40,0 z" />
    <rect
       style="fill:#999999;stroke:#000000;stroke-width:4;stroke-miterlimit:4;stroke-opacity:1;stroke-dasharray:none"
       id="rect4900-3"
       width="160"
       height="160"
       x="920.00049"
       y="-227.6377" />
    <path
       sodipodi:type="arc"
       style="fill:#999999;stroke:#000000;stroke-width:4;stroke-miterlimit:4;stroke-opacity:1;stroke-dasharray:none"
       id="path4902-0"
       sodipodi:cx="2820"
       sodipodi:cy="-367.63782"
       sodipodi:rx="20"
       sodipodi:ry="20"
       d="m 2840,-367.63782 a 20,20 0 1 1 -40,0 20,20 0 1 1 40,0 z"
       transform="translate(-1819.9995,160)" />
    <path
       transform="translate(-1819.9995,280)"
       sodipodi:type="arc"
       style="fill:#999999;stroke:#000000;stroke-width:4;stroke-miterlimit:4;stroke-opacity:1;stroke-dasharray:none"
       id="path4902-2-0"
       sodipodi:cx="2820"
       sodipodi:cy="-367.63782"
       sodipodi:rx="20"
       sodipodi:ry="20"
       d="m 2840,-367.63782 a 20,20 0 1 1 -40,0 20,20 0 1 1 40,0 z" />
    <path
       transform="translate(-1819.9995,220)"
       sodipodi:type="arc"
       style="fill:#999999;stroke:#000000;stroke-width:4;stroke-miterlimit:4;stroke-opacity:1;stroke-dasharray:none"
       id="path4902-6-8"
       sodipodi:cx="2820"
       sodipodi:cy="-367.63782"
       sodipodi:rx="20"
       sodipodi:ry="20"
       d="m 2840,-367.63782 a 20,20 0 1 1 -40,0 20,20 0 1 1 40,0 z" />
    <rect
       style="fill:#999999;stroke:#000000;stroke-width:4;stroke-miterlimit:4;stroke-opacity:1;stroke-dasharray:none"
       id="rect4900-37"
       width="160"
       height="160"
       x="2160.0005"
       y="-227.6377" />
    <path
       sodipodi:type="arc"
       style="fill:#999999;stroke:#000000;stroke-width:4;stroke-miterlimit:4;stroke-opacity:1;stroke-dasharray:none"
       id="path4902-47"
       sodipodi:cx="2820"
       sodipodi:cy="-367.63782"
       sodipodi:rx="20"
       sodipodi:ry="20"
       d="m 2840,-367.63782 a 20,20 0 1 1 -40,0 20,20 0 1 1 40,0 z"
       transform="translate(-579.99951,160)" />
    <path
       transform="translate(-579.99951,280)"
       sodipodi:type="arc"
       style="fill:#999999;stroke:#000000;stroke-width:4;stroke-miterlimit:4;stroke-opacity:1;stroke-dasharray:none"
       id="path4902-2-36"
       sodipodi:cx="2820"
       sodipodi:cy="-367.63782"
       sodipodi:rx="20"
       sodipodi:ry="20"
       d="m 2840,-367.63782 a 20,20 0 1 1 -40,0 20,20 0 1 1 40,0 z" />
    <path
       transform="translate(-579.99951,220)"
       sodipodi:type="arc"
       style="fill:#999999;stroke:#000000;stroke-width:4;stroke-miterlimit:4;stroke-opacity:1;stroke-dasharray:none"
       id="path4902-6-87"
       sodipodi:cx="2820"
       sodipodi:cy="-367.63782"
       sodipodi:rx="20"
       sodipodi:ry="20"
       d="m 2840,-367.63782 a 20,20 0 1 1 -40,0 20,20 0 1 1 40,0 z" />
    <text
       xml:space="preserve"
       style="font-size:99.24224854px;font-style:normal;font-weight:normal;line-height:125%;letter-spacing:0px;word-spacing:0px;fill:#000000;fill-opacity:1;stroke:none;font-family:Sans"
       x="119.56979"
       y="815.28503"
       id="text3938"
       sodipodi:linespacing="125%"
       transform="scale(1.003598,0.9964149)"><tspan
         sodipodi:role="line"
         id="tspan3940"
         x="119.56979"
         y="815.28503">Totals:</tspan><tspan
         sodipodi:role="line"
         x="119.56979"
         y="939.33783"
         id="tspan3944">USD: $100</tspan><tspan
         sodipodi:role="line"
         x="119.56979"
         y="1063.3906"
         id="tspan3942">CAD: $200</tspan></text>
    <rect
       style="fill:#0000ff;fill-rule:evenodd;stroke:#000000;stroke-width:1px;stroke-linecap:butt;stroke-linejoin:miter;stroke-opacity:1"
       id="rect2989-2-0-2"
       width="1040"
       height="1520"
       x="2480"
       y="-187.63721" />
    <rect
       style="fill:#f2f2f2"
       id="rect2991-8-1-0"
       width="960"
       height="1439.9999"
       x="2520"
       y="-147.63721" />
    <text
       xml:space="preserve"
       style="font-size:72.64710236px;font-style:normal;font-weight:normal;line-height:125%;letter-spacing:0px;word-spacing:0px;fill:#000000;fill-opacity:1;stroke:none;font-family:Sans"
       x="2750.7178"
       y="-25.721123"
       id="text4097-51-8"
       sodipodi:linespacing="125%"
       transform="scale(0.93066611,1.0744992)"><tspan
         sodipodi:role="line"
         id="tspan4099-78-6"
         x="2750.7178"
         y="-25.721123">Search Tags:</tspan></text>
    <rect
       style="fill:#808080;stroke:#000000;stroke-width:3.46409988;stroke-miterlimit:4;stroke-opacity:1;stroke-dasharray:none"
       id="rect4140-3-7"
       width="960"
       height="119.99988"
       x="2520.0005"
       y="12.362305" />
    <text
       xml:space="preserve"
       style="font-size:72.64710236px;font-style:normal;font-weight:normal;line-height:125%;letter-spacing:0px;word-spacing:0px;fill:#000000;fill-opacity:1;stroke:none;font-family:Sans"
       x="3051.5781"
       y="85.958565"
       id="text4097-9-19-5"
       sodipodi:linespacing="125%"
       transform="scale(0.93066611,1.0744992)"><tspan
         sodipodi:role="line"
         id="tspan4099-5-0-1"
         x="3051.5781"
         y="85.958565">Search</tspan></text>
    <rect
       style="fill:#999999;stroke:#000000;stroke-width:4;stroke-miterlimit:4;stroke-opacity:1;stroke-dasharray:none"
       id="rect4900-37-3"
       width="160"
       height="160"
       x="3360"
       y="-227.63721" />
    <path
       sodipodi:type="arc"
       style="fill:#999999;stroke:#000000;stroke-width:4;stroke-miterlimit:4;stroke-opacity:1;stroke-dasharray:none"
       id="path4902-47-0"
       sodipodi:cx="2820"
       sodipodi:cy="-367.63782"
       sodipodi:rx="20"
       sodipodi:ry="20"
       d="m 2840,-367.63782 a 20,20 0 1 1 -40,0 20,20 0 1 1 40,0 z"
       transform="translate(620.00009,160.0005)" />
    <path
       transform="translate(620.00009,280.0005)"
       sodipodi:type="arc"
       style="fill:#999999;stroke:#000000;stroke-width:4;stroke-miterlimit:4;stroke-opacity:1;stroke-dasharray:none"
       id="path4902-2-36-1"
       sodipodi:cx="2820"
       sodipodi:cy="-367.63782"
       sodipodi:rx="20"
       sodipodi:ry="20"
       d="m 2840,-367.63782 a 20,20 0 1 1 -40,0 20,20 0 1 1 40,0 z" />
    <path
       transform="translate(620.00009,220.0005)"
       sodipodi:type="arc"
       style="fill:#999999;stroke:#000000;stroke-width:4;stroke-miterlimit:4;stroke-opacity:1;stroke-dasharray:none"
       id="path4902-6-87-4"
       sodipodi:cx="2820"
       sodipodi:cy="-367.63782"
       sodipodi:rx="20"
       sodipodi:ry="20"
       d="m 2840,-367.63782 a 20,20 0 1 1 -40,0 20,20 0 1 1 40,0 z" />
    <rect
       style="fill:#808080"
       id="rect4027"
       width="440"
       height="200"
       x="1800.0005"
       y="812.3623" />
    <text
       xml:space="preserve"
       style="font-size:102.73885345px;font-style:normal;font-weight:normal;line-height:125%;letter-spacing:0px;word-spacing:0px;fill:#000000;fill-opacity:1;stroke:none;font-family:Sans"
       x="1838.4293"
       y="933.15906"
       id="text4029"
       sodipodi:linespacing="125%"
       transform="scale(1.0008547,0.99914603)"><tspan
         sodipodi:role="line"
         id="tspan4031"
         x="1838.4293"
         y="933.15906">Photo</tspan></text>
    <text
       xml:space="preserve"
       style="font-size:82.03704834px;font-style:normal;font-weight:normal;line-height:125%;letter-spacing:0px;word-spacing:0px;fill:#000000;fill-opacity:1;stroke:none;font-family:Sans"
       x="-1255.8102"
       y="-9.01931"
       id="text3842-1"
       sodipodi:linespacing="125%"
       transform="scale(1.0423083,0.95940905)"><tspan
         sodipodi:role="line"
         id="tspan3844-4"
         x="-1255.8102"
         y="-9.01931">Title</tspan><tspan
         sodipodi:role="line"
         x="-1255.8102"
         y="93.527077"
         id="tspan4066">Start Date</tspan><tspan
         sodipodi:role="line"
         x="-1255.8102"
         y="196.07347"
         id="tspan4070">End Date</tspan><tspan
         sodipodi:role="line"
         x="-1255.8102"
         y="298.61984"
         id="tspan4068">Destination</tspan><tspan
         sodipodi:role="line"
         x="-1255.8102"
         y="401.16577"
         id="tspan4072">Reason</tspan><tspan
         sodipodi:role="line"
         x="-1255.8102"
         y="503.71216"
         id="tspan3850-3">Tags</tspan><tspan
         sodipodi:role="line"
         x="-1255.8102"
         y="606.25854"
         id="tspan3852-8" /></text>
    <rect
       style="fill:#cccccc"
       id="rect3007-4"
       width="960"
       height="320"
       x="2520.0005"
       y="132.3623" />
    <text
       xml:space="preserve"
       style="font-size:84.41503143px;font-style:normal;font-weight:normal;line-height:125%;letter-spacing:0px;word-spacing:0px;fill:#000000;fill-opacity:1;stroke:none;font-family:Sans"
       x="2548.5962"
       y="222.86359"
       id="text3009-0"
       sodipodi:linespacing="125%"
       transform="scale(0.99229571,1.0077641)"><tspan
         sodipodi:role="line"
         id="tspan3011-5"
         x="2548.5962"
         y="222.86359">Calgary</tspan><tspan
         sodipodi:role="line"
         x="2548.5962"
         y="328.38214"
         id="tspan3013-5">From: 2015-01-01</tspan><tspan
         sodipodi:role="line"
         x="2548.5962"
         y="433.90118"
         id="tspan3015-1">Total: $201 CDN</tspan></text>
    <text
       xml:space="preserve"
       style="font-size:69.59240723px;font-style:normal;font-weight:normal;line-height:125%;letter-spacing:0px;word-spacing:0px;fill:#000000;fill-opacity:1;stroke:none;font-family:Sans"
       x="11845.231"
       y="-4894.5493"
       id="text4058-2-4"
       sodipodi:linespacing="125%"
       transform="scale(0.74299002,1.3459131)"><tspan
         sodipodi:role="line"
         id="tspan4060-4-5"
         x="11845.231"
         y="-4894.5493" /></text>
    <rect
       style="fill:#cccccc"
       id="rect3007-3"
       width="960"
       height="320"
       x="2520.0005"
       y="452.3623" />
    <text
       xml:space="preserve"
       style="font-size:84.41503143px;font-style:normal;font-weight:normal;line-height:125%;letter-spacing:0px;word-spacing:0px;fill:#000000;fill-opacity:1;stroke:none;font-family:Sans"
       x="2548.5962"
       y="540.39777"
       id="text3009-4"
       sodipodi:linespacing="125%"
       transform="scale(0.99229571,1.0077641)"><tspan
         sodipodi:role="line"
         id="tspan3011-6"
         x="2548.5962"
         y="540.39777">Calgary</tspan><tspan
         sodipodi:role="line"
         x="2548.5962"
         y="645.91632"
         id="tspan3013-97">From: 2015-01-01</tspan><tspan
         sodipodi:role="line"
         x="2548.5962"
         y="751.43536"
         id="tspan3015-8">Total: $201 CDN</tspan></text>
    <text
       xml:space="preserve"
       style="font-size:69.59240723px;font-style:normal;font-weight:normal;line-height:125%;letter-spacing:0px;word-spacing:0px;fill:#000000;fill-opacity:1;stroke:none;font-family:Sans"
       x="11952.905"
       y="-4567.6338"
       id="text4058-2-5"
       sodipodi:linespacing="125%"
       transform="scale(0.74299002,1.3459131)"><tspan
         sodipodi:role="line"
         id="tspan4060-4-0"
         x="11952.905"
         y="-4567.6338" /></text>
    <path
       style="fill:#000000"
       id="path4134"
       d="m -1861.6798,-278.37888 c 17.8298,-10.95713 37.4187,-18.46916 56.6554,-26.47415 64.573,-26.87083 -17.0532,6.27739 53.7044,-22.26172 46.6759,-18.46999 94.0281,-35.29892 142.3084,-49.10945 35.9774,-10.2913 54.0193,-14.12462 90.7989,-22.86752 104.5547,-25.33915 211.8497,-33.46309 318.9589,-38.53992 109.1294,-3.74115 218.34568,-3.57534 327.52523,-3.71077 93.30071,0.0388 186.60141,0.0859 279.90203,-0.0798 72.0269,-2.15616 144.07782,-7.95094 215.46336,-17.84394 10.52306,-1.85941 21.04911,-3.70203 31.56919,-5.57821 25.27157,-4.50702 33.37188,-5.59306 57.98225,-11.74111 24.78751,-6.19229 48.95249,-14.38219 73.18087,-22.41576 41.46839,-13.97024 81.25365,-32.23476 121.846778,-48.44734 39.673712,-15.91946 79.993163,-29.99902 120.086253,-44.79007 26.969593,-9.96025 54.939943,-16.83834 83.213579,-21.84742 31.80116,-5.70317 64.0429,-7.12909 96.26395,-8.16571 48.52558,-1.34023 97.07526,-1.05786 145.61331,-0.93887 77.0591,0.36184 154.11846,0.6462 231.1784,0.72552 87.06578,0.0583 174.13157,-0.01 261.19736,-0.002 99.69499,0.19318 199.39004,0.34756 299.08504,0.5513 115.9139,0.8983 231.8654,-1.54296 347.7428,1.75822 72.4488,3.94026 144.9141,9.68593 216.9049,18.87865 32.1993,4.11163 64.3061,8.91851 96.4723,13.28113 87.7943,12.07956 175.007,27.97616 262.6021,41.35599 74.8005,12.92158 150.3628,19.72152 226.1234,23.28059 27.1477,1.64554 54.3753,0.84421 81.5382,1.7245 21.9056,0.70992 43.8219,2.79114 65.6828,4.29651 37.5028,2.59047 75.0862,3.53942 112.6674,3.93188 25.2499,-1.32036 50.1238,1.80526 75.0763,5.03479 15.8705,2.7355 32.0849,2.08931 47.9878,4.22609 12.6802,1.37724 24.4812,6.63173 34.9063,13.78648 10.2941,6.71613 19.5546,14.82873 29.7668,21.66073 9.6965,6.50596 18.6987,13.94361 28.73,19.94691 8.8915,5.80635 18.5369,10.23682 28.3655,14.19606 11.5577,5.00507 22.9537,10.39576 34.9198,14.38968 10.7076,4.03159 21.3302,8.2336 31.7965,12.84195 8.7152,2.42617 15.3168,8.62937 22.2789,14.0667 7.9502,5.69298 15.3202,12.11477 22.9175,18.26488 6.3861,5.61793 13.9955,9.80071 19.2893,16.55649 0,0 -56.5534,33.71686 -56.5534,33.71686 l 0,0 c -4.9166,-6.3027 -12.5755,-9.93705 -18.3174,-15.4064 -7.5523,-6.11544 -14.7659,-12.67033 -22.826,-18.13368 -6.7269,-5.10656 -13.1718,-10.3096 -21.4249,-12.78225 -10.2352,-4.66278 -20.7688,-8.68083 -31.334,-12.52432 -11.8908,-4.4783 -23.4368,-9.7867 -35.1681,-14.65343 -10.0089,-4.33679 -19.9052,-8.94019 -28.9763,-15.06376 -9.8482,-6.39562 -19.0366,-13.69614 -28.7654,-20.26583 -9.9878,-7.04214 -19.453,-14.80167 -29.6927,-21.48377 -10.226,-6.14605 -21.1415,-10.47077 -33.1639,-11.34573 -15.8543,-1.49263 -31.8118,-2.0226 -47.5504,-4.67509 -24.5807,-3.33412 -49.1469,-5.63399 -74.0075,-4.8853 -37.4102,-0.81624 -74.8212,-1.9912 -112.1488,-4.72198 -48.5528,-3.40608 -97.0905,-5.55753 -145.7463,-6.94394 -75.5076,-4.27727 -150.7504,-11.74103 -225.3312,-24.59741 -87.324,-13.62136 -174.2866,-29.58264 -261.8317,-41.77789 -31.9773,-4.44907 -63.8886,-9.38044 -95.9053,-13.53673 -71.6305,-9.29886 -143.7524,-15.17753 -215.8639,-18.99083 -115.9543,-3.05941 -231.9649,-0.97551 -347.9499,-1.41293 -100.20019,0.20397 -200.40048,0.35965 -300.6007,0.54971 -87.04167,0.003 -174.08332,-0.0719 -261.12499,-0.0521 -77.67474,0.042 -155.34936,0.24527 -233.02322,0.6245 -48.82451,0.21897 -97.66216,0.307 -146.46681,1.85328 -32.37734,1.46559 -64.724183,3.63177 -96.640095,9.60124 -27.771454,5.43608 -55.3013068,12.21067 -81.852577,22.13515 -40.061541,14.45864 -80.139178,28.80023 -119.658378,44.71324 -40.44552,16.35508 -80.26993,34.3584 -121.80476,47.8918 -24.15964,7.8165 -48.25362,15.63758 -72.98961,21.48625 -22.8684,5.40708 -34.39566,7.20457 -57.74872,11.20706 -10.51913,1.80288 -21.05017,3.53559 -31.57525,5.30338 -71.23464,9.36388 -143.08469,14.99175 -214.91913,16.42514 -92.87561,-0.35568 -185.75149,-0.64841 -278.62758,-0.83996 -109.00228,-0.17589 -218.04858,-0.49906 -326.99118,3.67191 -107.2049,5.34177 -214.5786,13.85871 -319.0686,39.99561 -80.18,19.64105 -158.4499,42.18105 -234.6549,74.32476 -38.32,15.81577 -77.1171,31.03441 -113.2021,51.61012 0,0 51.2035,-40.95792 51.2035,-40.95792 z"
       inkscape:connector-curvature="0" />
    <path
       style="fill:#000000"
       id="path4138"
       d="m 2639.7604,-349.80068 c 21.0495,13.24256 41.4226,27.49665 62.1787,41.18337 20.7028,13.80962 40.7039,28.58359 61.3122,42.53169 12.0825,8.07648 23.0464,17.61319 34.5778,26.42129 8.1417,6.61722 16.4021,13.04675 24.7232,19.43415 9.8068,6.26315 18.3709,14.17283 27.6618,21.11246 8.3742,6.37798 17.4744,11.82627 26.9004,16.49987 7.9753,3.99228 16.0054,8.18601 24.4209,11.19692 7.8221,2.65938 15.5835,4.92253 23.8062,5.99808 21.5438,-9.28688 9.6999,-4.3045 -50.0343,27.93271 -1.3966,0.75374 2.7608,-1.6166 3.9243,-2.696 6.4994,-6.02988 8.9435,-14.66013 12.0237,-22.65538 10.839,-29.96442 15.3596,-61.63883 20.7301,-92.89673 10.5922,-61.64911 0.9529,-6.20812 12.2505,-70.86842 13.3717,-72.94433 22.8885,-146.49314 40.6647,-218.55846 7.1953,-26.9701 16.4894,-53.30457 24.2591,-80.10183 0,0 58.5758,-27.71025 58.5758,-27.71025 l 0,0 c -8.566,27.23517 -19.1721,53.78606 -27.1773,81.20895 -2.6455,9.73541 -5.5516,19.40373 -7.9366,29.20621 -15.1793,62.38769 -21.9321,126.35929 -33.9239,189.35292 -8.2332,49.66097 -3.8808,22.64811 -11.3181,70.37515 -4.8376,31.04478 -8.5213,62.48482 -17.671,92.64765 -2.0802,6.58774 -6.3363,25.07709 -13.1542,29.07591 -58.9498,34.57459 -37.684,35.1246 -64.9178,33.41028 -8.4458,-1.60578 -16.5952,-4.19744 -24.6654,-7.14724 -8.3567,-3.63049 -16.6201,-7.53633 -24.6514,-11.83718 -9.5442,-5.17105 -18.8989,-10.75188 -27.404,-17.5343 -9.154,-7.17562 -18.0651,-14.66394 -27.8381,-21.01626 -8.2925,-6.38381 -16.3271,-13.08815 -24.5522,-19.55797 -11.2997,-8.81604 -22.0157,-18.37887 -33.9083,-26.42323 -20.2695,-14.17434 -39.8496,-29.30122 -60.543,-42.86631 -20.9606,-13.76453 -41.6996,-27.8527 -63.4065,-40.44279 0,0 55.0927,-35.27526 55.0927,-35.27526 z"
       inkscape:connector-curvature="0" />
  </g>
</svg>
